<svg xmlns="http://www.w3.org/2000/svg" viewBox="0 0 248 247.32"><defs><style>.cls-1{fill:#0e7aa7;}.cls-2{fill:#1f1a20;}</style></defs><title>logo</title><g id="Layer_2" data-name="Layer 2"><g id="Layer_5" data-name="Layer 5"><path class="cls-1" d="M145.92,43.74c0,13.68,0,27.37,0,41.05,0,1.82-.38,2.53-2.37,2.51q-19.73-.18-39.46-.13c-1.73,0-2.21-.49-2.2-2.24q.09-41.16,0-82.3c0-2,.53-2.57,2.53-2.56Q124.2.16,143.93,0c1.69,0,1.95.65,1.94,2.09q0,20.84,0,41.65Z"/><path class="cls-1" d="M110.84,98.28c0-2.51-.06-4.76,0-7A1.64,1.64,0,0,1,112,90.14c8.19-.07,16.37-.06,24.84-.06,0,2.64.08,5-.08,7.33,0,.34-1.19.88-1.8.84-2-.14-2.58.51-2.55,2.56.13,9.71,0,19.43.12,29.14a6.66,6.66,0,0,1-3.66,6.49,2.88,2.88,0,0,0-1.08,2.19c-.06,6.67,0,13.35,0,20a14.74,14.74,0,0,1-.7,3,87.2,87.2,0,0,0-2,8.8c-.43,3.33-.36,6.73-.54,10.09a6.79,6.79,0,0,1-.75,2.95c-.15-1-.37-1.91-.43-2.88-.29-4.35-.4-8.72-.84-13.05-.18-1.79-1-3.51-1.54-5.27a18.1,18.1,0,0,1-1.11-4.46c-.11-6.27,0-12.55,0-18.83a3.18,3.18,0,0,0-1.38-3c-3-2.09-3.89-5.22-3.9-8.68q0-12.48,0-25V98.62Zm9.86.4a6.74,6.74,0,0,0-.15,1c-.08,8.24-.18,16.48-.21,24.73a45.87,45.87,0,0,0,.37,6.31,3.39,3.39,0,0,0,3.59,3c2-.12,2.48-1.44,2.58-3.1,0-.46.07-.92.07-1.38q0-14.65,0-29.29a11.32,11.32,0,0,0-.15-1.25Z"/><path class="cls-2" d="M248,114.59c0-1.43-.5-2-1.86-2.21-6.23-1.18-12.44-2.49-18.68-3.66-1.23-.23-1.83-.65-2-1.92a61.28,61.28,0,0,0-1.46-6.58c-.42-1.46,0-2.2,1.24-3.06,5.13-3.63,10.13-7.42,15.22-11.1a1.81,1.81,0,0,0,.66-2.65c-2.21-4.81-4.39-9.62-6.49-14.48-.65-1.51-1.43-2-3.14-1.68-6.06,1-12.15,1.91-18.25,2.73a2.9,2.9,0,0,1-2.3-.77,67.7,67.7,0,0,1-4.37-6.37,2.33,2.33,0,0,1,0-2c3.56-5.8,7.2-11.55,10.85-17.3a1.62,1.62,0,0,0-.21-2.39q-5.52-5.43-10.91-11a2.12,2.12,0,0,0-3.08-.43c-5.75,3.52-11.57,6.92-17.32,10.45a1.89,1.89,0,0,1-2.46,0c-1.82-1.31-3.68-2.59-5.6-3.75a2.19,2.19,0,0,1-1.23-2.54c1-6.67,1.81-13.36,2.76-20,.19-1.3,0-2-1.37-2.54-4.78-1.75-9.5-3.66-14.25-5.49-.52-.2-1.07-.3-1.77-.49-.06,1-.13,1.7-.13,2.42,0,11,0,22,0,32.92a3.62,3.62,0,0,0,2.17,3.72c11.1,6,21,13.53,29,23.38,15,18.48,22.33,39.44,20.06,63.33s-13.36,43.54-30.72,59.84a5.44,5.44,0,0,1-4.06,1.54l-28.87,0,38.17-16-43.8,12.84,12.9-10.37-22,11.88q3-3.78,6.05-7.55c-5.5,3-11,6.15-16.48,9.19h-.22c-5.49-3-11-6.16-16.47-9.19l6,7.55-22-11.88,12.91,10.37L60.59,176.41l38.22,16q-11.73,0-23.46.11c-5.78,0-10-1.43-14-5.66C36.48,160.78,28.11,130.56,39,96c7.33-23.19,22.78-40.08,44.05-51.68a3,3,0,0,0,1.84-3.09c0-11.24,0-22.49,0-33.73,0-.71-.08-1.42-.13-2.28a3.85,3.85,0,0,0-.88.06c-5,2-9.94,4-14.93,5.94-1.09.42-1,1.11-.91,2,1,6.86,2,13.74,3,20.6a2.23,2.23,0,0,1-1.21,2.59q-2.72,1.63-5.3,3.49a2.19,2.19,0,0,1-2.84.07c-5.64-3.59-11.35-7-17-10.68-1.36-.88-2.06-.7-3.11.41-3.3,3.52-6.72,6.93-10.1,10.38-2.35,2.4-2.4,2.42-.46,5.28q5,7.4,10.14,14.7a2.18,2.18,0,0,1-.07,3A72.68,72.68,0,0,0,37,69.28a2.39,2.39,0,0,1-3,1.33c-6.22-1.27-12.47-2.37-18.7-3.6a2,2,0,0,0-2.58,1.35c-2.08,4.86-4.2,9.7-6.4,14.51-.64,1.4-.41,2.2.85,3.12,5.35,3.89,10.6,7.92,15.94,11.81a2.42,2.42,0,0,1,1.09,3,40.24,40.24,0,0,0-1.12,5.43c-.17,1.3-.77,1.73-2,2-6.44,1.15-12.86,2.43-19.3,3.59C.47,112,0,112.48,0,113.82c.1,5.88.15,11.77.11,17.65,0,1.52.56,2,2,2.27,6.3,1.16,12.58,2.48,18.88,3.68a1.89,1.89,0,0,1,1.83,1.87,34.72,34.72,0,0,0,1.05,5.65c.44,1.49,0,2.26-1.19,3.11-5.16,3.81-10.24,7.72-15.38,11.55a2.12,2.12,0,0,0-.83,3c2.25,4.78,4.42,9.6,6.57,14.43a2.22,2.22,0,0,0,2.8,1.43c5.88-.89,11.79-1.59,17.68-2.47,1.91-.29,3.27,0,4.2,1.87a16.89,16.89,0,0,0,2.49,3.58c1.16,1.35,1.18,2.45.21,4-3.34,5.39-6.48,10.92-9.76,16.35a2,2,0,0,0,.41,2.89c3.67,3.53,7.29,7.11,10.82,10.78,1.11,1.16,1.9,1.12,3.18.34,5.48-3.33,11-6.53,16.54-9.83a2.11,2.11,0,0,1,2.69,0c2,1.46,3.93,2.91,6,4.25a2.08,2.08,0,0,1,1,2.49C70,219.07,69,225.4,67.69,231.68c-.34,1.62.16,2.17,1.55,2.74,4.91,2,9.8,4,14.61,6.18,1.53.7,2.27.49,3.2-.87,3.65-5.36,7.45-10.61,11.12-15.95a2.42,2.42,0,0,1,3.11-1.19,24.14,24.14,0,0,0,5.43,1.11c2,.12,2.43,1.14,2.79,2.82,1.32,6.34,2.83,12.64,4.19,19,.28,1.34.82,1.85,2.24,1.83q8-.13,16.07,0a1.8,1.8,0,0,0,2.11-1.71c1.42-6.65,2.95-13.28,4.39-19.94a1.89,1.89,0,0,1,1.76-1.75,57.12,57.12,0,0,0,6.22-1.27,2.2,2.2,0,0,1,2.75,1.09c3.87,5.36,7.91,10.6,11.8,16,.94,1.29,1.78,1.33,3.14.71,4.38-2,8.79-4,13.27-5.8,1.74-.69,2.23-1.52,1.89-3.38-1.13-6.24-2.06-12.51-3.12-18.77a2.12,2.12,0,0,1,1-2.49A53,53,0,0,0,182.4,206a2.46,2.46,0,0,1,3.46-.27c5.76,3.62,11.64,7.08,17.42,10.67a1.85,1.85,0,0,0,2.83-.36c3.48-3.72,7-7.38,10.67-10.93,1.19-1.15,1.35-2,.42-3.33-3.54-5.26-6.94-10.62-10.48-15.89-.72-1.08-.94-1.79,0-2.93a69.62,69.62,0,0,0,4.25-6.22,2.42,2.42,0,0,1,2.92-1.25c5.79,1.09,11.61,2,17.38,3.09,1.73.33,2.62,0,3.34-1.68q3-7.11,6.39-14.08c.72-1.49.52-2.34-.77-3.3-5.05-3.74-10-7.6-15.06-11.32a2.5,2.5,0,0,1-1.19-3.13,42.47,42.47,0,0,0,1.34-6,1.88,1.88,0,0,1,1.83-1.86c6.43-1.24,12.84-2.58,19.27-3.8,1.22-.24,1.64-.71,1.62-1.94C247.93,125.83,247.9,120.21,248,114.59Z"/></g></g></svg>